name C:\Users\u0101727\Documents\MyRepositories\upper-imu-dc\Results\main_tracking\Case_46\FLX02_orientations_groundFrame.mot
datacolumns 13
datarows 18
range 0.51000000 0.68000000
endheader 
time	radius_imu_[0][0]	radius_imu_[0][1]	radius_imu_[0][2]	radius_imu_[1][0]	radius_imu_[1][1]	radius_imu_[1][2]	radius_imu_[2][0]	radius_imu_[2][1]	radius_imu_[2][2]	radius_imu_x	radius_imu_y	radius_imu_z	
          0.51000000	          0.65032111	          0.02011389	          0.75939311	         -0.15145411	          0.98301346	          0.10366380	         -0.74440857	         -0.18242796	          0.64232073	         -0.16000975	          0.86237983	         -0.03091932	
          0.52000000	          0.64865303	          0.01891115	          0.76084927	         -0.15243780	          0.98266228	          0.10553467	         -0.74566210	         -0.18443757	          0.64028964	         -0.16335462	          0.86462084	         -0.02914623	
          0.53000000	          0.64684323	          0.01766674	          0.76241834	         -0.15341855	          0.98230751	          0.10739979	         -0.74703185	         -0.18643994	          0.63810936	         -0.16674657	          0.86704222	         -0.02730546	
          0.54000000	          0.64489186	          0.01638096	          0.76409826	         -0.15438635	          0.98195186	          0.10924928	         -0.74851810	         -0.18842031	          0.63578176	         -0.17017264	          0.86964234	         -0.02539564	
          0.55000000	          0.64280536	          0.01505710	          0.76588155	         -0.15533669	          0.98159695	          0.11107625	         -0.75011452	         -0.19036991	          0.63331470	         -0.17362281	          0.87241125	         -0.02341976	
          0.56000000	          0.64059084	          0.01369623	          0.76776024	         -0.15626573	          0.98124392	          0.11287776	         -0.75181407	         -0.19228307	          0.63071612	         -0.17709277	          0.87533820	         -0.02137736	
          0.57000000	          0.63825335	          0.01229602	          0.76972818	         -0.15716879	          0.98089369	          0.11465400	         -0.75361173	         -0.19415555	          0.62799123	         -0.18058370	          0.87841524	         -0.01926272	
          0.58000000	          0.63579333	          0.01085064	          0.77178307	         -0.15803961	          0.98054724	          0.11640702	         -0.75550666	         -0.19598310	          0.62514023	         -0.18410094	          0.88164047	         -0.01706464	
          0.59000000	          0.63320132	          0.00935070	          0.77393065	         -0.15886990	          0.98020592	          0.11813852	         -0.75750673	         -0.19775975	          0.62215323	         -0.18765243	          0.88502474	         -0.01476627	
          0.60000000	          0.63046060	          0.00778611	          0.77618220	         -0.15964883	          0.97987194	          0.11984674	         -0.75962601	         -0.19947523	          0.61901370	         -0.19124306	          0.88858793	         -0.01234926	
          0.61000000	          0.62753455	          0.00614598	          0.77856446	         -0.16036302	          0.97954888	          0.12152242	         -0.76189507	         -0.20111246	          0.61568635	         -0.19487233	          0.89237508	         -0.00979355	
          0.62000000	          0.62427093	          0.00439413	          0.78119556	         -0.16099610	          0.97924203	          0.12314749	         -0.76443839	         -0.20264684	          0.61201977	         -0.19856345	          0.89657860	         -0.00703870	
          0.63000000	          0.62739636	          0.00432656	          0.77868806	         -0.16152072	          0.97895919	          0.12469947	         -0.76176431	         -0.20401024	          0.61489426	         -0.20008471	          0.89257206	         -0.00689594	
          0.64000000	          0.61883874	          0.00112380	          0.78551725	         -0.16196718	          0.97869320	          0.12619928	         -0.76863856	         -0.20532502	          0.60583529	         -0.20536944	          0.90353152	         -0.00181598	
          0.65000000	          0.61851154	         -0.00011653	          0.78577571	         -0.16235344	          0.97840326	          0.12793917	         -0.76882042	         -0.20670524	          0.60513478	         -0.20835431	          0.90394928	          0.00018841	
          0.66000000	          0.61810142	         -0.00173587	          0.78609645	         -0.16270527	          0.97806065	          0.13009364	         -0.76907583	         -0.20831310	          0.60425824	         -0.21205789	          0.90446802	          0.00280839	
          0.67000000	          0.61760554	         -0.00370940	          0.78647927	         -0.16303542	          0.97766367	          0.13263938	         -0.76940422	         -0.21014279	          0.60320573	         -0.21644613	          0.90508762	          0.00600603	
          0.68000000	          0.61472723	         -0.00662243	          0.78871197	         -0.16333168	          0.97722086	          0.13550702	         -0.77164318	         -0.21212151	          0.59964262	         -0.22224668	          0.90871101	          0.01077255	
